<svg width="311" height="357" viewBox="0 0 311 357" fill="none" xmlns="http://www.w3.org/2000/svg">
<mask id="mask0_44_1955" style="mask-type:alpha" maskUnits="userSpaceOnUse" x="1" y="1" width="308" height="354">
<rect x="66.9072" width="249.105" height="309.531" rx="10" transform="rotate(12.4826 66.9072 0)" fill="#EBEDFF"/>
</mask>
<g mask="url(#mask0_44_1955)">
<path d="M0 0.238647H310V356.239H0V0.238647Z" fill="#FEFEFE"/>
<g filter="url(#filter0_f_44_1955)">
<path d="M217.294 261.384L214.429 260.713L218.187 244.673C234.218 238.155 247.142 224.263 251.437 205.931C260.43 167.549 227.21 131.363 188.203 137.936C191.532 131.464 190.717 124.626 186.501 119.407L186.052 108.425L197.277 114.681L202.646 91.7659L189.81 92.3845L196.066 81.1596L173.152 75.7908L173.77 88.6263L162.545 82.3705L157.176 105.285L170.012 104.667L164.732 114.307C159.209 117.243 154.868 122.874 154.976 130.151C122.948 106.935 77.1122 124.598 68.1195 162.98C63.8244 181.312 69.2322 199.5 80.6992 212.46L76.9411 228.5L74.0767 227.829C69.4938 226.755 64.5442 229.826 63.4704 234.409C62.3967 238.992 65.4672 243.941 70.0501 245.015L213.267 278.57C217.85 279.644 222.799 276.573 223.873 271.991C224.947 267.408 221.876 262.458 217.294 261.384ZM101.198 228.14C97.7608 227.335 96.0062 224.507 96.8115 221.07C97.6168 217.632 100.445 215.878 103.882 216.683C107.32 217.488 109.074 220.317 108.269 223.754C107.464 227.191 104.062 228.812 101.198 228.14ZM124.113 233.509C120.675 232.704 118.921 229.876 119.726 226.438C120.531 223.001 123.36 221.247 126.797 222.052C130.234 222.857 131.989 225.686 131.184 229.123C130.378 232.56 126.977 234.18 124.113 233.509ZM135.21 211.937L85.9435 200.394C79.2296 190.36 76.624 178.268 79.5768 165.665C87.0932 133.584 125.724 120.88 150.439 141.778C151.012 141.913 150.878 142.486 151.451 142.62L135.21 211.937ZM181.253 92.7969C184.691 93.6022 186.445 96.4306 185.64 99.8678C184.835 103.305 182.006 105.06 178.569 104.254C175.132 103.449 173.377 100.621 174.183 97.1834C174.988 93.7462 177.816 91.9916 181.253 92.7969ZM169.845 141.491C173.282 142.296 175.037 145.124 174.231 148.561C173.426 151.999 170.598 153.753 167.16 152.948C163.723 152.143 161.969 149.314 162.774 145.877C163.579 142.44 166.408 140.685 169.845 141.491ZM160.449 181.591C163.887 182.397 165.641 185.225 164.836 188.662C164.03 192.099 161.202 193.854 157.765 193.049C154.328 192.243 152.573 189.415 153.378 185.978C154.184 182.541 157.012 180.786 160.449 181.591ZM147.027 238.878C143.59 238.073 141.836 235.244 142.641 231.807C143.446 228.37 146.275 226.615 149.712 227.421C153.149 228.226 154.904 231.054 154.098 234.492C153.293 237.929 149.892 239.549 147.027 238.878ZM169.942 244.247C166.505 243.441 164.75 240.613 165.556 237.176C166.361 233.739 169.189 231.984 172.626 232.789C176.064 233.595 177.818 236.423 177.013 239.86C176.208 243.298 172.806 244.918 169.942 244.247ZM192.857 249.616C189.42 248.81 187.665 245.982 188.47 242.545C189.276 239.108 192.104 237.353 195.541 238.158C198.978 238.964 200.733 241.792 199.928 245.229C199.122 248.666 195.721 250.287 192.857 249.616ZM169.582 219.99L185.823 150.673C186.396 150.807 186.53 150.234 187.103 150.369C218.529 142.624 247.496 171.166 239.98 203.246C237.027 215.85 229.321 225.526 218.849 231.533L169.582 219.99Z" fill="#F3F3F1"/>
</g>
<g filter="url(#filter1_f_44_1955)">
<path d="M91.8137 41.848L91.3723 41.7384L91.9865 39.2669C94.4777 38.2928 96.5041 36.1723 97.206 33.3478C98.6755 27.434 93.616 21.7721 87.5733 22.7072C88.1013 21.7138 87.9895 20.6551 87.3486 19.8398L87.3021 18.1414L89.0241 19.1316L89.9014 15.601L87.9162 15.67L88.9064 13.948L85.3758 13.0706L85.4448 15.0558L83.7228 14.0656L82.8454 17.5963L84.8306 17.5273L83.9945 19.0064C83.1348 19.4488 82.4523 20.31 82.4538 21.435C77.5516 17.7803 70.4304 20.4154 68.9609 26.3292C68.2591 29.1537 69.0572 31.976 70.8027 34.003L70.1886 36.4744L69.7472 36.3647C69.0411 36.1893 68.2697 36.6536 68.0942 37.3597C67.9188 38.0658 68.3831 38.8372 69.0892 39.0127L91.1557 44.496C91.8618 44.6715 92.6332 44.2071 92.8087 43.501C92.9841 42.7949 92.5198 42.0235 91.8137 41.848ZM73.9385 36.4691C73.4089 36.3375 73.1436 35.8967 73.2752 35.3671C73.4068 34.8375 73.8476 34.5722 74.3772 34.7038C74.9068 34.8354 75.1721 35.2761 75.0405 35.8057C74.9089 36.3353 74.3798 36.5787 73.9385 36.4691ZM77.4692 37.3464C76.9396 37.2148 76.6742 36.774 76.8058 36.2444C76.9374 35.7148 77.3782 35.4495 77.9078 35.5811C78.4374 35.7127 78.7027 36.1535 78.5711 36.6831C78.4395 37.2127 77.9105 37.4561 77.4692 37.3464ZM79.2291 34.0351L71.6383 32.1488C70.6214 30.5841 70.2437 28.7097 70.7262 26.7678C71.9545 21.8249 77.9518 19.9414 81.7285 23.2228C81.8167 23.2447 81.7948 23.333 81.8831 23.3549L79.2291 34.0351ZM86.5927 15.716C87.1223 15.8476 87.3877 16.2884 87.2561 16.8179C87.1245 17.3475 86.6837 17.6129 86.1541 17.4813C85.6245 17.3497 85.3592 16.9089 85.4908 16.3793C85.6224 15.8497 86.0632 15.5844 86.5927 15.716ZM84.7284 23.2185C85.258 23.3501 85.5233 23.7909 85.3918 24.3205C85.2602 24.8501 84.8194 25.1155 84.2898 24.9839C83.7602 24.8523 83.4948 24.4115 83.6264 23.8819C83.758 23.3523 84.1988 23.0869 84.7284 23.2185ZM83.1931 29.3971C83.7227 29.5287 83.988 29.9695 83.8564 30.4991C83.7248 31.0287 83.284 31.2941 82.7544 31.1625C82.2248 31.0309 81.9595 30.5901 82.0911 30.0605C82.2227 29.5309 82.6635 29.2655 83.1931 29.3971ZM80.9998 38.2237C80.4702 38.0921 80.2049 37.6513 80.3365 37.1217C80.4681 36.5921 80.9089 36.3268 81.4384 36.4584C81.968 36.59 82.2334 37.0308 82.1018 37.5604C81.9702 38.09 81.4411 38.3334 80.9998 38.2237ZM84.5304 39.1011C84.0008 38.9695 83.7355 38.5287 83.8671 37.9991C83.9987 37.4695 84.4395 37.2041 84.9691 37.3357C85.4987 37.4673 85.764 37.9081 85.6324 38.4377C85.5008 38.9673 84.9717 39.2107 84.5304 39.1011ZM88.061 39.9784C87.5314 39.8468 87.2661 39.406 87.3977 38.8764C87.5293 38.3468 87.9701 38.0815 88.4997 38.2131C89.0293 38.3447 89.2946 38.7855 89.163 39.3151C89.0314 39.8446 88.5024 40.088 88.061 39.9784ZM84.5251 35.3511L87.179 24.6709C87.2673 24.6929 87.2892 24.6046 87.3775 24.6265C92.2508 23.4946 96.6689 27.9662 95.4406 32.9091C94.9581 34.851 93.747 36.3306 92.1159 37.2373L84.5251 35.3511Z" fill="#F3F3F1"/>
</g>
<g filter="url(#filter2_f_44_1955)">
<path d="M91.7319 41.7342L91.2921 41.6249L91.904 39.1623C94.3864 38.1917 96.4055 36.0788 97.1049 33.2643C98.5691 27.3717 93.5277 21.73 87.5066 22.6617C88.0327 21.6719 87.9213 20.617 87.2827 19.8047L87.2364 18.1123L88.9522 19.099L89.8264 15.5809L87.8483 15.6497L88.835 13.9339L85.317 13.0597L85.3857 15.0378L83.6699 14.0511L82.7957 17.5691L84.7738 17.5004L83.9406 18.9742C83.084 19.415 82.4039 20.2732 82.4055 21.3942C77.5208 17.7525 70.425 20.3781 68.9608 26.2708C68.2614 29.0852 69.0567 31.8975 70.796 33.9172L70.184 36.3798L69.7443 36.2705C69.0407 36.0957 68.272 36.5583 68.0972 37.2619C67.9224 37.9655 68.385 38.7342 69.0886 38.909L91.0762 44.3727C91.7798 44.5476 92.5484 44.0849 92.7233 43.3813C92.8981 42.6777 92.4355 41.9091 91.7319 41.7342ZM73.9206 36.3745C73.3929 36.2433 73.1285 35.8041 73.2596 35.2764C73.3908 34.7487 73.83 34.4843 74.3577 34.6155C74.8854 34.7466 75.1498 35.1858 75.0186 35.7135C74.8875 36.2412 74.3603 36.4837 73.9206 36.3745ZM77.4386 37.2487C76.9109 37.1175 76.6465 36.6783 76.7776 36.1506C76.9088 35.6229 77.348 35.3585 77.8757 35.4897C78.4034 35.6208 78.6678 36.06 78.5366 36.5877C78.4055 37.1154 77.8783 37.3579 77.4386 37.2487ZM79.1923 33.9492L71.6286 32.0697C70.6153 30.5106 70.239 28.6428 70.7198 26.7079C71.9436 21.7827 77.9195 19.9059 81.6827 23.1756C81.7706 23.1974 81.7488 23.2854 81.8367 23.3072L79.1923 33.9492ZM86.5296 15.6955C87.0573 15.8267 87.3217 16.2659 87.1905 16.7936C87.0594 17.3213 86.6202 17.5857 86.0925 17.4545C85.5648 17.3234 85.3004 16.8842 85.4315 16.3565C85.5627 15.8288 86.0019 15.5644 86.5296 15.6955ZM84.6719 23.1713C85.1996 23.3024 85.464 23.7417 85.3329 24.2694C85.2018 24.7971 84.7625 25.0614 84.2348 24.9303C83.7071 24.7992 83.4427 24.36 83.5739 23.8323C83.705 23.3046 84.1442 23.0402 84.6719 23.1713ZM83.1421 29.3278C83.6698 29.459 83.9342 29.8982 83.803 30.4259C83.6719 30.9536 83.2327 31.218 82.705 31.0868C82.1773 30.9557 81.9129 30.5165 82.044 29.9888C82.1752 29.4611 82.6144 29.1967 83.1421 29.3278ZM80.9566 38.1229C80.4289 37.9917 80.1645 37.5525 80.2957 37.0248C80.4268 36.4971 80.866 36.2327 81.3937 36.3639C81.9214 36.495 82.1858 36.9342 82.0547 37.4619C81.9235 37.9896 81.3964 38.2321 80.9566 38.1229ZM84.4746 38.9971C83.9469 38.8659 83.6825 38.4267 83.8137 37.899C83.9448 37.3713 84.384 37.1069 84.9117 37.238C85.4394 37.3692 85.7038 37.8084 85.5727 38.3361C85.4415 38.8638 84.9144 39.1063 84.4746 38.9971ZM87.9926 39.8712C87.4649 39.7401 87.2006 39.3009 87.3317 38.7732C87.4628 38.2455 87.902 37.9811 88.4297 38.1122C88.9574 38.2434 89.2218 38.6826 89.0907 39.2103C88.9596 39.738 88.4324 39.9805 87.9926 39.8712ZM84.4693 35.2605L87.1137 24.6185C87.2017 24.6404 87.2235 24.5524 87.3115 24.5743C92.1674 23.4464 96.5697 27.902 95.3459 32.8273C94.8651 34.7622 93.6583 36.2365 92.033 37.14L84.4693 35.2605Z" fill="#F3F3F1"/>
</g>
<g filter="url(#filter3_f_44_1955)">
<path d="M233.258 342.418L232.817 342.316L233.387 339.843C235.853 338.831 237.837 336.685 238.489 333.86C239.855 327.943 234.72 322.386 228.716 323.418C229.225 322.42 229.096 321.367 228.444 320.565L228.37 318.874L230.102 319.832L230.917 316.3L228.94 316.402L229.898 314.67L226.366 313.854L226.468 315.831L224.736 314.873L223.92 318.405L225.897 318.303L225.089 319.791C224.24 320.246 223.574 321.115 223.594 322.236C218.649 318.676 211.598 321.42 210.232 327.336C209.58 330.162 210.422 332.96 212.195 334.951L211.624 337.423L211.182 337.321C210.476 337.158 209.715 337.634 209.552 338.34C209.389 339.046 209.864 339.807 210.571 339.97L232.646 345.067C233.353 345.23 234.114 344.754 234.277 344.048C234.44 343.342 233.964 342.581 233.258 342.418ZM215.36 337.356C214.83 337.233 214.558 336.798 214.681 336.269C214.803 335.739 215.238 335.467 215.768 335.589C216.297 335.712 216.569 336.147 216.447 336.676C216.325 337.206 215.801 337.457 215.36 337.356ZM218.892 338.171C218.362 338.049 218.091 337.614 218.213 337.084C218.335 336.554 218.77 336.283 219.3 336.405C219.83 336.527 220.101 336.962 219.979 337.492C219.857 338.022 219.334 338.273 218.892 338.171ZM220.591 334.843L212.997 333.09C211.957 331.548 211.55 329.686 211.999 327.744C213.14 322.799 219.084 320.823 222.901 324.029C222.989 324.049 222.969 324.138 223.057 324.158L220.591 334.843ZM227.623 316.469C228.152 316.592 228.424 317.026 228.302 317.556C228.179 318.086 227.745 318.358 227.215 318.235C226.685 318.113 226.413 317.678 226.536 317.149C226.658 316.619 227.093 316.347 227.623 316.469ZM225.89 323.975C226.42 324.097 226.691 324.532 226.569 325.062C226.447 325.592 226.012 325.863 225.482 325.741C224.952 325.619 224.681 325.184 224.803 324.654C224.925 324.124 225.36 323.853 225.89 323.975ZM224.463 330.156C224.993 330.279 225.264 330.713 225.142 331.243C225.02 331.773 224.585 332.045 224.055 331.922C223.525 331.8 223.254 331.365 223.376 330.835C223.498 330.306 223.933 330.034 224.463 330.156ZM222.424 338.986C221.894 338.864 221.623 338.429 221.745 337.9C221.867 337.37 222.302 337.098 222.832 337.22C223.362 337.343 223.633 337.777 223.511 338.307C223.389 338.837 222.866 339.088 222.424 338.986ZM225.956 339.802C225.426 339.68 225.155 339.245 225.277 338.715C225.399 338.185 225.834 337.914 226.364 338.036C226.894 338.158 227.165 338.593 227.043 339.123C226.921 339.653 226.398 339.904 225.956 339.802ZM229.488 340.617C228.959 340.495 228.687 340.06 228.809 339.53C228.931 339.001 229.366 338.729 229.896 338.851C230.426 338.974 230.698 339.408 230.575 339.938C230.453 340.468 229.93 340.719 229.488 340.617ZM225.889 336.066L228.355 325.381C228.444 325.402 228.464 325.313 228.552 325.334C233.389 324.125 237.865 328.507 236.723 333.452C236.275 335.394 235.093 336.889 233.483 337.819L225.889 336.066Z" fill="#F3F3F1"/>
</g>
</g>
<defs>
<filter id="filter0_f_44_1955" x="59.2559" y="71.7908" width="197.665" height="210.994" filterUnits="userSpaceOnUse" color-interpolation-filters="sRGB">
<feFlood flood-opacity="0" result="BackgroundImageFix"/>
<feBlend mode="normal" in="SourceGraphic" in2="BackgroundImageFix" result="shape"/>
<feGaussianBlur stdDeviation="2" result="effect1_foregroundBlur_44_1955"/>
</filter>
<filter id="filter1_f_44_1955" x="64.0566" y="9.07068" width="37.4062" height="39.4625" filterUnits="userSpaceOnUse" color-interpolation-filters="sRGB">
<feFlood flood-opacity="0" result="BackgroundImageFix"/>
<feBlend mode="normal" in="SourceGraphic" in2="BackgroundImageFix" result="shape"/>
<feGaussianBlur stdDeviation="2" result="effect1_foregroundBlur_44_1955"/>
</filter>
<filter id="filter2_f_44_1955" x="64.0605" y="9.05969" width="37.2998" height="39.3501" filterUnits="userSpaceOnUse" color-interpolation-filters="sRGB">
<feFlood flood-opacity="0" result="BackgroundImageFix"/>
<feBlend mode="normal" in="SourceGraphic" in2="BackgroundImageFix" result="shape"/>
<feGaussianBlur stdDeviation="2" result="effect1_foregroundBlur_44_1955"/>
</filter>
<filter id="filter3_f_44_1955" x="205.52" y="309.854" width="37.1924" height="39.2449" filterUnits="userSpaceOnUse" color-interpolation-filters="sRGB">
<feFlood flood-opacity="0" result="BackgroundImageFix"/>
<feBlend mode="normal" in="SourceGraphic" in2="BackgroundImageFix" result="shape"/>
<feGaussianBlur stdDeviation="2" result="effect1_foregroundBlur_44_1955"/>
</filter>
</defs>
</svg>
