<svg width="328" height="301" viewBox="0 0 328 301" fill="none" xmlns="http://www.w3.org/2000/svg">
<path d="M351.318 151.626C380.596 232.068 339.12 321.013 258.679 350.292C178.237 379.57 89.2915 338.094 60.0131 257.652C30.7348 177.211 72.2108 88.2652 152.652 58.9869C233.094 29.7085 322.039 71.1845 351.318 151.626Z" fill="#CAC48E"/>
<path d="M148.985 178.033C156.01 163.413 173.512 157.284 188.074 164.32L250.353 194.411C264.922 201.45 271.055 219.011 264.026 233.638C257.002 248.258 239.5 254.387 224.938 247.351L162.659 217.26C148.09 210.221 141.957 192.66 148.985 178.033Z" stroke="#FFFAC2" stroke-width="9.13333"/>
<rect x="227.168" y="193.956" width="40" height="40" rx="20" transform="rotate(25 227.168 193.956)" fill="#FFFAC2"/>
</svg>
