<svg width="328" height="301" viewBox="0 0 328 301" fill="none" xmlns="http://www.w3.org/2000/svg">
<path d="M351.318 151.626C380.596 232.068 339.12 321.013 258.679 350.292C178.237 379.57 89.2915 338.094 60.0131 257.652C30.7348 177.211 72.2108 88.2652 152.652 58.9869C233.094 29.7085 322.039 71.1845 351.318 151.626Z" fill="#F588B9"/>
<path d="M158.285 221.887L177.163 201.061C177.222 200.997 177.24 200.905 177.21 200.823L172.865 188.882C172.805 188.716 172.589 188.676 172.474 188.81L142.056 224.308C142.001 224.372 141.985 224.461 142.014 224.541L144.935 232.569C144.966 232.654 145.043 232.713 145.132 232.721L189.877 236.601C190.046 236.616 190.172 236.449 190.114 236.289L185.762 224.329C185.731 224.243 185.652 224.183 185.562 224.177L158.439 222.276C158.247 222.263 158.155 222.03 158.285 221.887Z" fill="#FFEDF5"/>
<path d="M158.285 221.887L177.163 201.061C177.222 200.997 177.24 200.905 177.21 200.823L172.865 188.882C172.805 188.716 172.589 188.676 172.474 188.81L142.056 224.308C142.001 224.372 141.985 224.461 142.014 224.541L144.935 232.569C144.966 232.654 145.043 232.713 145.132 232.721L189.877 236.601C190.046 236.616 190.172 236.449 190.114 236.289L185.762 224.329C185.731 224.243 185.652 224.183 185.562 224.177L158.439 222.276C158.247 222.263 158.155 222.03 158.285 221.887Z" fill="#FFEDF5"/>
<path d="M158.285 221.887L177.163 201.061C177.222 200.997 177.24 200.905 177.21 200.823L172.865 188.882C172.805 188.716 172.589 188.676 172.474 188.81L142.056 224.308C142.001 224.372 141.985 224.461 142.014 224.541L144.935 232.569C144.966 232.654 145.043 232.713 145.132 232.721L189.877 236.601C190.046 236.616 190.172 236.449 190.114 236.289L185.762 224.329C185.731 224.243 185.652 224.183 185.562 224.177L158.439 222.276C158.247 222.263 158.155 222.03 158.285 221.887Z" fill="#FFEDF5"/>
<path d="M251.963 187.123L224.225 183.597C224.139 183.586 224.067 183.528 224.037 183.446L219.692 171.505C219.632 171.338 219.771 171.167 219.944 171.194L265.883 178.356C265.966 178.369 266.036 178.426 266.065 178.506L268.986 186.535C269.017 186.619 268.996 186.715 268.933 186.779L237.321 218.995C237.202 219.116 236.999 219.072 236.941 218.912L232.589 206.952C232.558 206.866 232.58 206.769 232.645 206.705L252.096 187.521C252.234 187.384 252.155 187.147 251.963 187.123Z" fill="#FFEDF5"/>
<path d="M251.963 187.123L224.225 183.597C224.139 183.586 224.067 183.528 224.037 183.446L219.692 171.505C219.632 171.338 219.771 171.167 219.944 171.194L265.883 178.356C265.966 178.369 266.036 178.426 266.065 178.506L268.986 186.535C269.017 186.619 268.996 186.715 268.933 186.779L237.321 218.995C237.202 219.116 236.999 219.072 236.941 218.912L232.589 206.952C232.558 206.866 232.58 206.769 232.645 206.705L252.096 187.521C252.234 187.384 252.155 187.147 251.963 187.123Z" fill="#FFEDF5"/>
<path d="M251.963 187.123L224.225 183.597C224.139 183.586 224.067 183.528 224.037 183.446L219.692 171.505C219.632 171.338 219.771 171.167 219.944 171.194L265.883 178.356C265.966 178.369 266.036 178.426 266.065 178.506L268.986 186.535C269.017 186.619 268.996 186.715 268.933 186.779L237.321 218.995C237.202 219.116 236.999 219.072 236.941 218.912L232.589 206.952C232.558 206.866 232.58 206.769 232.645 206.705L252.096 187.521C252.234 187.384 252.155 187.147 251.963 187.123Z" fill="#FFEDF5"/>
<path d="M210.043 169.014L198.181 173.416C198.09 173.45 198.03 173.538 198.03 173.636L198.186 242.767C198.186 242.929 198.346 243.041 198.496 242.986L210.358 238.584C210.449 238.55 210.509 238.462 210.509 238.364L210.353 169.233C210.353 169.071 210.193 168.959 210.043 169.014Z" fill="#FFEDF5"/>
</svg>
