<svg width="328" height="301" viewBox="0 0 328 301" fill="none" xmlns="http://www.w3.org/2000/svg">
<path d="M351.318 151.626C380.596 232.068 339.12 321.013 258.679 350.292C178.237 379.57 89.2915 338.094 60.0131 257.652C30.7348 177.211 72.2108 88.2652 152.652 58.9869C233.094 29.7085 322.039 71.1845 351.318 151.626Z" fill="#A2B87E"/>
<path d="M172.632 256.871C170.644 255.965 169.836 253.568 170.869 251.645L188.077 219.608L151.468 225.347C149.319 225.684 147.33 224.141 147.122 221.976L145.181 201.777C144.97 199.588 146.668 197.682 148.867 197.638L185.74 196.911L162.086 168.616C160.675 166.928 160.998 164.397 162.788 163.118L179.301 151.324C181.071 150.06 183.54 150.547 184.697 152.39L204.397 183.775L217.271 149.765C218.044 147.722 220.383 146.759 222.37 147.664L240.923 156.114C242.914 157.021 243.721 159.424 242.681 161.349L225.391 193.337L262 187.598C264.149 187.261 266.138 188.804 266.346 190.969L268.288 211.172C268.498 213.36 266.803 215.265 264.606 215.311L227.824 216.078L251.389 244.33C252.797 246.018 252.472 248.547 250.683 249.824L234.167 261.621C232.397 262.885 229.928 262.398 228.771 260.555L209.071 229.17L196.288 263.211C195.518 265.259 193.176 266.227 191.185 265.321L172.632 256.871Z" fill="#ECFFCE"/>
</svg>
