<svg width="328" height="301" viewBox="0 0 328 301" fill="none" xmlns="http://www.w3.org/2000/svg">
<path d="M351.318 151.626C380.596 232.068 339.12 321.013 258.679 350.292C178.237 379.57 89.2915 338.094 60.0131 257.652C30.7348 177.211 72.2108 88.2652 152.652 58.9869C233.094 29.7085 322.039 71.1845 351.318 151.626Z" fill="#F28164"/>
<path d="M163.14 218.498C163.037 218.097 163.278 217.688 163.68 217.584L179.369 213.545C179.77 213.441 180.179 213.683 180.282 214.084L184.284 229.624C184.387 230.026 184.145 230.435 183.744 230.538L168.055 234.578C167.654 234.681 167.245 234.439 167.141 234.038L163.14 218.498Z" fill="#FFBCAB"/>
<path d="M232.186 200.719C232.083 200.318 232.324 199.909 232.726 199.805L248.415 195.766C248.816 195.662 249.225 195.904 249.328 196.305L253.33 211.845C253.433 212.247 253.191 212.656 252.79 212.759L237.101 216.799C236.7 216.902 236.291 216.661 236.187 216.259L232.186 200.719Z" fill="#FFBCAB"/>
<path d="M184.66 231.076C184.557 230.675 184.798 230.266 185.2 230.162L235.649 217.172C236.051 217.069 236.46 217.311 236.563 217.712L240.564 233.252C240.668 233.653 240.426 234.063 240.025 234.166L189.575 247.156C189.174 247.259 188.765 247.018 188.661 246.616L184.66 231.076Z" fill="#FFBCAB"/>
<path d="M171.331 179.312C171.228 178.911 171.47 178.502 171.871 178.399L187.56 174.359C187.961 174.256 188.37 174.497 188.474 174.898L192.475 190.439C192.578 190.84 192.337 191.249 191.935 191.352L176.246 195.392C175.845 195.495 175.436 195.254 175.333 194.852L171.331 179.312Z" fill="#FFBCAB"/>
<path d="M206.093 170.362C205.99 169.961 206.231 169.552 206.633 169.449L222.322 165.409C222.723 165.306 223.132 165.547 223.235 165.949L227.237 181.489C227.34 181.89 227.098 182.299 226.697 182.403L211.008 186.442C210.607 186.546 210.198 186.304 210.094 185.903L206.093 170.362Z" fill="#FFBCAB"/>
</svg>
